<?xml version="1.0" standalone="no"?><!DOCTYPE svg PUBLIC "-//W3C//DTD SVG 1.1//EN" "http://www.w3.org/Graphics/SVG/1.1/DTD/svg11.dtd"><svg t="1710215243720" class="icon" viewBox="0 0 1024 1024" version="1.1" xmlns="http://www.w3.org/2000/svg" p-id="1498" xmlns:xlink="http://www.w3.org/1999/xlink" width="48" height="48"><path d="M423.687947 757.47897a100.195631 100.195631 0 0 1-100.195631-101.197587V366.716009a100.195631 100.195631 0 0 1 153.299316-85.166286l232.453863 145.283665a100.195631 100.195631 0 0 1 0 170.332573L476.791632 741.447669a100.195631 100.195631 0 0 1-52.101729 15.029345z m0-410.802087a21.041083 21.041083 0 0 0-10.019563 3.005869 20.039126 20.039126 0 0 0-10.019563 17.033257v289.565374a20.039126 20.039126 0 0 0 31.060646 17.033257l232.453863-145.283665a20.039126 20.039126 0 0 0 0-34.066514L433.70751 349.682752a19.03717 19.03717 0 0 0-10.019563-4.007825z" fill="#1196db" p-id="1499" data-spm-anchor-id="a313x.search_index.0.i0.d3ed3a81tgysbb" class="selected"></path><path d="M512.862059 1023.999349A511.999674 511.999674 0 0 1 313.472753 40.078252a511.999674 511.999674 0 0 1 398.778611 942.840888 508.993805 508.993805 0 0 1-199.389305 41.080209z m0-943.842844C274.396457 80.156505 81.018889 273.534073 81.018889 511.999674s193.377568 431.84317 431.84317 431.84317 431.84317-194.379524 431.843169-431.84317S750.325704 80.156505 512.862059 80.156505z" fill="#1196db" p-id="1500" data-spm-anchor-id="a313x.search_index.0.i2.d3ed3a81tgysbb" class="selected"></path></svg>